<?xml version = "1.0" encoding="UTF-8" standalone="no"?>
<svg:svg width="209 height="176 version = "1.1">
	<polyline fill="none" stroke="black" points="178,14 164,22 156,23 149,26 105,26 102,28 />
	<polyline fill="none" stroke="black" points="21,44 22,41 29,35 55,27 101,27 />
	<polyline fill="none" stroke="black" points="103,29 110,37 112,43 112,50 107,56 97,63 93,64 77,81 73,93 70,96 67,103 67,119 74,132 79,136 89,141 107,143 111,145 />
	<polyline fill="none" stroke="black" points="114,145 118,143 123,133 136,118 146,113 151,113 />
	<polyline fill="none" stroke="black" points="112,144 112,145 />
	<polyline fill="none" stroke="black" points="111,146 112,147 />
	<polyline fill="none" stroke="black" points="113,146 113,148 109,151 80,163 52,167 35,167 27,164 />
</svg>
